<svg width="16" height="16" version="1.1" viewBox="0 0 4.2333 4.2333" xmlns="http://www.w3.org/2000/svg">
  <g fill="#0c02ae">
    <path d="m0.52917 0.26458 0.26458 3e-8v-0.26458l0.52917-3.3333e-8v0.26458l0.26458-3e-8v1.5875h-1.0583z" stroke-width=".10247"/>
    <path d="m2.6458 0.26458 0.26458-3e-8v-0.26458l0.52917-3.6667e-8v0.26458l0.26458 3e-8v1.5875h-1.0583z" stroke-width=".14791"/>
    <path d="m0.26458 1.8521v0.26458h-0.26458v1.5875h0.26458v0.26458h0.26458v0.26458h3.175v-0.26458h0.26458v-0.26458h0.26458v-1.5875h-0.26458v-0.26458h-1.8521zm0.52917 0.79375h0.79375v0.52917h-0.79375zm1.8521 0h0.79375v0.52917h-0.79375z" stroke-width=".13229"/>
  </g>
</svg>
